<svg xmlns="http://www.w3.org/2000/svg" viewBox="0 0 64 64" width="64" height="64">
  <defs>
    <linearGradient id="grad1" x1="0%" y1="0%" x2="100%" y2="100%">
      <stop offset="0%" style="stop-color:#ff4e00"/>
      <stop offset="100%" style="stop-color:#ec9f05"/>
    </linearGradient>
    <linearGradient id="grad2" x1="0%" y1="0%" x2="100%" y2="100%">
      <stop offset="0%" style="stop-color:#ff4e00"/>
      <stop offset="100%" style="stop-color:#ff9a00"/>
    </linearGradient>
  </defs>
  <!-- 圆形背景 -->
  <circle cx="32" cy="32" r="30" fill="#0f0f1a"/>
  <!-- 火焰轮廓 -->
  <path d="M32 10 C27 17 21 21 23 30 C20 26 20 20 22 16 C16 22 14 31 18 39 C20 44 26 49 32 50 C38 49 44 44 46 39 C50 31 48 22 42 16 C44 20 44 26 41 30 C43 21 37 17 32 10Z" fill="url(#grad1)"/>
  <!-- 闪电叠加在火焰中心 -->
  <polygon points="34,22 26,36 31,36 30,46 38,32 33,32" fill="white" opacity="0.95"/>
</svg>
